#!OML:ASF F:\VICON\USERDATA\INSTALL\rory3\rory3.ASF
:FULLY-SPECIFIED
:DEGREES
3711
root -14.0416 17.6794 16.4249 1259.13 17.6647 -1620.48
lowerback 10.4501 1.59854 0.213189
upperback 0.642468 2.19273 -0.538672
thorax -5.15968 1.10004 -1.00692
lowerneck -19.0891 -5.38849 -10.6255
upperneck 36.3994 -3.17425 4.10072
head 16.6929 -1.373 3.30595
rclavicle -5.29823e-014 5.06901e-015
rhumerus -34.8287 -2.27032 -86.3417
rradius 38.7554
rwrist 1.4039
rhand -16.4636 8.64129
rfingers 7.12502
rthumb 9.75286 -21.1129
lclavicle -5.29823e-014 5.06901e-015
lhumerus -34.1702 5.18458 81.2312
lradius 31.3494
lwrist -5.25174
lhand -19.7877 24.7141
lfingers 7.12502
lthumb 6.54476 54.593
rfemur -2.94896 0.125798 22.0969
rtibia 28.5949
rfoot -21.4074 1.76093
rtoes 1.16552
lfemur -12.562 -2.43697 -21.0346
ltibia 29.7268
lfoot -13.2937 -29.4062
ltoes -1.39442
3712
root -14.0266 17.6761 16.4219 1259.24 17.1234 -1620.24
lowerback 10.4663 1.66202 0.620891
upperback 0.652683 2.32459 -0.56603
thorax -5.13861 1.15593 -1.28402
lowerneck -19.0048 -5.43002 -10.7234
upperneck 36.2756 -3.26476 4.23759
head 16.6235 -1.40139 3.36208
rclavicle -4.20119e-014 1.19271e-014
rhumerus -34.7096 -2.28599 -86.3929
rradius 38.5828
rwrist 1.69708
rhand -16.0142 9.72619
rfingers 7.12502
rthumb 10.1865 -20.0072
lclavicle -4.20119e-014 1.19271e-014
lhumerus -34.1916 5.15259 81.2655
lradius 31.3806
lwrist -5.10206
lhand -18.9935 26.2341
lfingers 7.12502
lthumb 7.31145 56.0878
rfemur -2.71849 -0.222036 22.3783
rtibia 28.2356
rfoot -21.2133 1.56408
rtoes 0.700556
lfemur -13.0607 -2.43568 -20.7855
ltibia 30.4913
lfoot -13.8682 -29.0138
ltoes -3.657
3713
root -14.0129 17.6677 16.4154 1259.3 16.7314 -1619.99
lowerback 10.5243 1.7325 0.981154
upperback 0.66079 2.46364 -0.534163
thorax -5.14558 1.21681 -1.47535
lowerneck -18.9546 -5.39422 -10.8639
upperneck 36.0941 -3.24973 4.42205
head 16.5235 -1.38832 3.46419
rclavicle -5.60945e-015 -2.33572e-015
rhumerus -34.5894 -2.08269 -86.4063
rradius 38.4076
rwrist 1.71139
rhand -16.0099 9.81358
rfingers 7.12502
rthumb 10.1906 -19.9196
lclavicle -5.60945e-015 -2.33572e-015
lhumerus -34.3081 5.26046 81.3278
lradius 31.452
lwrist -5.00907
lhand -18.6268 26.9056
lfingers 7.12502
lthumb 7.66533 56.7467
rfemur -2.48695 -0.497666 22.6536
rtibia 27.9395
rfoot -21.1604 1.55059
rtoes 0.358272
lfemur -13.5311 -2.37792 -20.5566
ltibia 31.2868
lfoot -14.305 -28.497
ltoes -5.53308
3714
root -13.9988 17.6626 16.4218 1259.4 16.1528 -1619.73
lowerback 10.7191 1.73771 1.2835
upperback 0.632893 2.51259 -0.473341
thorax -5.27231 1.23296 -1.59729
lowerneck -19.0385 -5.18693 -10.7475
upperneck 35.7654 -3.06824 4.54328
head 16.349 -1.28624 3.51614
rclavicle -4.17572e-014 3.72721e-015
rhumerus -34.4802 -1.67297 -86.4295
rradius 38.3183
rwrist 1.55826
rhand -16.3916 8.54791
rfingers 7.12502
rthumb 9.82236 -21.203
lclavicle -4.17572e-014 3.72721e-015
lhumerus -34.4403 5.38449 81.4209
lradius 31.5544
lwrist -4.9079
lhand -18.8231 26.2954
lfingers 7.12502
lthumb 7.47595 56.1433
rfemur -2.37181 -0.779664 22.9913
rtibia 27.6732
rfoot -21.0863 1.39724
rtoes 0.477674
lfemur -14.1436 -2.22333 -20.3114
ltibia 32.1149
lfoot -14.932 -27.8855
ltoes -9.09851
3715
root -13.9841 17.6605 16.4366 1259.57 15.5075 -1619.43
lowerback 10.9358 1.72348 1.57315
upperback 0.629341 2.53966 -0.375039
thorax -5.3885 1.23962 -1.67019
lowerneck -19.1874 -5.05993 -10.5874
upperneck 35.4681 -2.95309 4.49018
head 16.212 -1.2333 3.4699
rclavicle -3.23025e-014 3.97569e-016
rhumerus -34.2528 -1.25958 -86.4109
rradius 38.2029
rwrist 1.5164
rhand -16.951 8.0985
rfingers 7.12502
rthumb 9.28262 -21.6771
lclavicle -3.23025e-014 3.97569e-016
lhumerus -34.3907 5.53139 81.5496
lradius 31.5101
lwrist -4.97024
lhand -18.9844 25.5811
lfingers 7.12502
lthumb 7.32017 55.4345
rfemur -2.35396 -0.966572 23.4286
rtibia 27.4441
rfoot -20.919 1.1439
rtoes 0.725339
lfemur -14.8371 -1.99027 -20.0136
ltibia 32.9213
lfoot -15.8148 -27.1266
ltoes -13.3773
3716
root -13.9689 17.6583 16.4431 1259.67 14.9584 -1619.18
lowerback 11.0851 1.74684 1.81156
upperback 0.658857 2.61125 -0.285535
thorax -5.43216 1.27104 -1.7268
lowerneck -19.4561 -5.12772 -10.5647
upperneck 35.445 -2.98539 4.32447
head 16.2658 -1.2724 3.38318
rclavicle -6.00081e-015 5.81445e-015
rhumerus -33.9995 -1.10313 -86.2684
rradius 37.9855
rwrist 1.77078
rhand -17.493 8.95814
rfingers 7.12502
rthumb 8.7596 -20.8401
lclavicle -6.00081e-015 5.81445e-015
lhumerus -34.2997 5.58638 81.7391
lradius 31.4019
lwrist -5.05244
lhand -19.0145 25.506
lfingers 7.12502
lthumb 7.2912 55.3604
rfemur -2.24884 -1.08353 23.7997
rtibia 27.1887
rfoot -20.7793 0.841513
rtoes 0.996071
lfemur -15.4247 -1.72823 -19.8119
ltibia 33.7083
lfoot -16.5083 -26.3673
ltoes -16.762
3717
root -13.9508 17.6621 16.4458 1259.72 14.3813 -1619.16
lowerback 11.2178 1.77497 1.7825
upperback 0.666053 2.6526 -0.235254
thorax -5.50085 1.29254 -1.66959
lowerneck -19.7526 -5.19391 -10.5825
upperneck 35.5157 -3.01002 4.23785
head 16.3761 -1.29915 3.34538
rclavicle -1.05573e-014 7.50412e-015
rhumerus -33.8322 -1.09378 -86.0737
rradius 37.7754
rwrist 2.23647
rhand -17.6136 9.76151
rfingers 7.12502
rthumb 8.64327 -20.0416
lclavicle -1.05573e-014 7.50412e-015
lhumerus -34.3522 5.84767 81.8402
lradius 31.3757
lwrist -5.21136
lhand -18.5974 26.2147
lfingers 7.12502
lthumb 7.69374 56.0547
rfemur -2.09646 -1.24696 23.9414
rtibia 26.8853
rfoot -20.6053 0.554257
rtoes 1.7023
lfemur -16.0064 -1.52872 -19.8499
ltibia 34.4497
lfoot -16.5138 -25.8382
ltoes -18.0978
3718
root -13.9318 17.6721 16.4476 1259.75 13.7688 -1619.22
lowerback 11.3377 1.76135 1.64268
upperback 0.670855 2.62273 -0.202532
thorax -5.57178 1.28143 -1.55709
lowerneck -19.8637 -5.19828 -10.65
upperneck 35.4441 -3.01724 4.30886
head 16.3705 -1.30332 3.38344
rclavicle 2.82259e-014 -1.08089e-015
rhumerus -33.6099 -0.901749 -85.9657
rradius 37.4996
rwrist 2.51834
rhand -17.5445 9.854
rfingers 7.12502
rthumb 8.7099 -19.9463
lclavicle 2.82259e-014 -1.08089e-015
lhumerus -34.4373 6.24209 81.8652
lradius 31.3141
lwrist -5.32387
lhand -17.9902 27.5715
lfingers 7.12502
lthumb 8.27975 57.3893
rfemur -1.92445 -1.43808 24.0053
rtibia 26.5578
rfoot -20.4675 0.224656
rtoes 2.14242
lfemur -16.5815 -1.43435 -19.9664
ltibia 35.1435
lfoot -16.6744 -25.1311
ltoes -18.9249
3719
root -13.9139 17.6835 16.4478 1259.84 13.2187 -1619.16
lowerback 11.4607 1.77887 1.68033
upperback 0.659617 2.65564 -0.182987
thorax -5.65052 1.29612 -1.56832
lowerneck -19.8024 -5.23464 -10.6509
upperneck 35.2552 -3.11809 4.35087
head 16.2705 -1.34161 3.37286
rclavicle -1.39833e-014 -1.72694e-015
rhumerus -33.4357 -0.720073 -85.9149
rradius 37.2593
rwrist 2.45153
rhand -17.9268 10.2099
rfingers 7.12502
rthumb 8.34099 -19.6054
lclavicle -1.39833e-014 -1.72694e-015
lhumerus -34.4463 6.50247 81.8923
lradius 31.1245
lwrist -5.49233
lhand -17.8033 28.2018
lfingers 7.12502
lthumb 8.46017 58.0123
rfemur -1.78999 -1.51606 24.2144
rtibia 26.2158
rfoot -20.2582 -0.159737
rtoes 2.50495
lfemur -17.1403 -1.31145 -19.9533
ltibia 35.7952
lfoot -17.1853 -24.1337
ltoes -19.4456
3720
root -13.8964 17.6888 16.4477 1259.93 12.7386 -1619.04
lowerback 11.5898 1.85954 1.79644
upperback 0.657265 2.78274 -0.176526
thorax -5.71552 1.35539 -1.65248
lowerneck -19.8252 -5.31305 -10.5891
upperneck 35.0945 -3.30319 4.4029
head 16.2122 -1.4059 3.34029
rclavicle 2.39163e-016 4.52235e-015
rhumerus -33.2377 -0.847369 -85.7921
rradius 37.0171
rwrist 2.36097
rhand -18.4218 11.099
rfingers 7.12502
rthumb 7.86328 -18.7348
lclavicle 2.39163e-016 4.52235e-015
lhumerus -34.3848 6.66655 81.9278
lradius 30.8984
lwrist -5.76973
lhand -17.8718 28.3292
lfingers 7.12502
lthumb 8.39405 58.1424
rfemur -1.6481 -1.5595 24.478
rtibia 25.8513
rfoot -20.0878 -0.525419
rtoes 2.47795
lfemur -17.6837 -1.17101 -19.8801
ltibia 36.4111
lfoot -17.933 -22.9128
ltoes -19.983
